<?xml version="1.0" standalone="no"?>
<!DOCTYPE svg PUBLIC "-//W3C//DTD SVG 20010904//EN"
 "http://www.w3.org/TR/2001/REC-SVG-20010904/DTD/svg10.dtd">
<svg version="1.0" xmlns="http://www.w3.org/2000/svg"
 width="1120.000000pt" height="1120.000000pt" viewBox="0 0 1120.000000 1120.000000"
 preserveAspectRatio="xMidYMid meet">
<metadata>
Created by potrace 1.11, written by Peter Selinger 2001-2013
</metadata>
<g transform="translate(0.000000,1120.000000) scale(0.100000,-0.100000)"
fill="#000000" stroke="none">
<path d="M8480 9083 c0 -4 -42 -8 -93 -9 -91 0 -258 -12 -287 -19 -8 -2 -35
-7 -60 -10 -37 -5 -102 -17 -220 -40 -8 -2 -15 -4 -15 -5 0 -1 -7 -3 -15 -5
-25 -5 -144 -37 -160 -43 -8 -3 -18 -6 -22 -7 -5 -2 -9 -3 -10 -4 -2 -2 -13
-4 -24 -7 -26 -4 -229 -82 -297 -113 -25 -11 -51 -21 -56 -21 -6 0 -11 -4 -11
-9 0 -5 -10 -11 -22 -15 -19 -4 -185 -93 -283 -150 -67 -39 -306 -210 -346
-248 -8 -7 -37 -31 -64 -53 -75 -59 -291 -278 -378 -382 -43 -51 -113 -142
-157 -203 -79 -111 -220 -340 -220 -357 0 -5 -6 -15 -12 -21 -7 -7 -13 -16
-14 -20 0 -4 -21 -50 -46 -102 -25 -52 -51 -112 -59 -133 -7 -20 -17 -36 -22
-34 -5 1 -8 6 -8 10 1 41 -226 469 -305 574 -13 17 -24 34 -24 37 0 3 -6 14
-14 23 -8 10 -43 56 -78 103 -35 47 -67 90 -73 96 -5 6 -32 37 -60 69 -189
222 -428 428 -715 615 -123 81 -367 207 -500 259 -47 18 -94 37 -105 41 -24
10 -68 23 -75 22 -3 0 -10 4 -15 8 -6 5 -24 11 -40 14 -16 3 -41 10 -55 15
-29 12 -146 42 -175 46 -11 2 -38 7 -60 13 -22 6 -56 13 -75 16 -19 3 -46 8
-60 10 -130 22 -250 30 -440 31 -166 0 -309 -7 -380 -19 -34 -6 -99 -17 -135
-22 -16 -3 -70 -14 -120 -25 -49 -12 -94 -22 -100 -23 -64 -13 -376 -125 -433
-155 -9 -6 -48 -25 -87 -44 -38 -19 -86 -44 -105 -56 -19 -11 -44 -25 -55 -30
-11 -5 -37 -21 -58 -35 -21 -14 -42 -26 -47 -26 -6 0 -10 -4 -10 -10 0 -5 -7
-10 -15 -10 -8 0 -15 -4 -15 -10 0 -5 -7 -10 -15 -10 -8 0 -15 -4 -15 -8 0 -4
-14 -16 -31 -26 -18 -10 -40 -26 -50 -35 -10 -9 -24 -21 -31 -26 -119 -90
-276 -237 -375 -352 -26 -30 -53 -60 -58 -66 -53 -58 -215 -290 -215 -306 0
-6 -4 -11 -9 -11 -5 0 -11 -8 -14 -17 -4 -10 -22 -45 -41 -78 -46 -80 -101
-193 -138 -285 -34 -83 -97 -272 -104 -309 -7 -33 -35 -152 -42 -176 -12 -40
-14 -768 -2 -845 31 -205 122 -471 228 -673 39 -73 146 -246 167 -271 6 -6 45
-54 87 -107 164 -203 420 -418 638 -534 30 -17 58 -34 61 -38 3 -5 9 -8 13 -8
3 1 39 -14 78 -32 129 -60 293 -115 418 -142 109 -23 120 -25 175 -30 28 -3
66 -8 85 -10 43 -7 305 -7 340 -1 14 3 52 7 85 11 32 4 62 8 65 10 4 2 29 7
56 11 27 3 52 8 57 11 4 2 19 6 33 9 14 3 59 15 100 28 40 13 74 22 74 20 0
-2 -27 -44 -60 -93 -33 -49 -60 -94 -60 -100 0 -6 -4 -11 -10 -11 -5 0 -10 -5
-10 -10 0 -6 -15 -34 -33 -63 -18 -29 -40 -65 -48 -82 -22 -44 -153 -275 -217
-385 -53 -89 -202 -315 -235 -356 -69 -84 -138 -166 -167 -198 -48 -54 -217
-218 -260 -252 -19 -16 -37 -32 -40 -35 -3 -4 -57 -45 -120 -93 -63 -47 -126
-95 -140 -106 -14 -11 -30 -20 -37 -20 -6 0 -13 -3 -15 -7 -3 -8 -76 -58 -113
-79 -46 -25 -70 -39 -75 -45 -16 -19 -484 -261 -576 -298 l-31 -12 16 -82 c15
-75 19 -82 41 -84 31 -2 273 -5 280 -3 3 1 48 3 100 4 91 3 219 13 305 22 22
2 60 7 85 9 92 9 168 19 225 29 17 2 53 7 80 11 28 3 69 10 93 16 23 5 59 12
80 15 20 2 60 9 88 15 28 5 64 12 80 15 16 3 70 14 119 25 50 12 101 22 115
24 14 2 88 20 165 40 77 20 151 38 165 41 14 3 34 8 45 11 11 4 25 8 30 9 40
9 233 63 255 71 8 3 20 7 25 8 6 0 17 4 25 7 20 8 152 50 165 52 6 1 15 4 20
7 6 3 48 18 95 33 92 30 221 77 285 106 46 20 78 33 85 34 29 7 390 197 434
229 6 4 53 34 104 67 52 33 99 65 105 70 7 5 53 39 102 76 50 36 95 71 100 78
6 6 35 31 65 56 134 108 332 307 455 455 28 33 52 62 55 65 30 30 220 298 220
310 0 6 3 10 8 10 4 0 16 18 26 40 11 22 23 40 28 40 4 0 8 5 8 11 0 6 8 23
19 37 29 43 146 268 191 372 66 149 66 150 69 170 0 6 5 10 11 10 5 0 9 -3 8
-7 -2 -10 4 -25 65 -163 68 -153 167 -342 218 -417 16 -23 29 -45 29 -48 0 -8
111 -173 160 -236 19 -26 44 -59 55 -75 80 -112 321 -370 480 -514 152 -137
362 -293 540 -400 50 -30 92 -57 95 -60 3 -3 46 -25 95 -50 50 -25 92 -48 93
-52 2 -5 7 -8 12 -8 5 0 55 -22 112 -48 57 -27 119 -54 138 -61 19 -7 53 -21
75 -30 22 -10 128 -46 235 -80 107 -35 204 -68 215 -72 16 -7 137 -42 180 -53
6 -1 37 -10 70 -20 33 -10 68 -20 78 -22 10 -2 27 -6 37 -9 10 -3 28 -8 41
-10 12 -2 58 -14 103 -26 45 -11 91 -23 103 -25 12 -2 34 -9 48 -14 14 -5 25
-8 25 -5 0 2 15 -1 33 -6 17 -5 43 -11 57 -14 39 -7 73 -14 100 -20 160 -34
410 -78 578 -101 82 -11 95 -12 257 -30 131 -14 336 -24 475 -23 63 0 138 1
166 0 l52 0 12 47 c6 26 14 63 16 83 4 34 2 38 -33 54 -225 104 -623 317 -631
337 -2 4 -8 8 -14 8 -12 0 -280 182 -303 206 -5 5 -28 23 -50 39 -22 16 -42
31 -45 34 -3 4 -39 35 -80 71 -155 135 -316 308 -419 450 -22 30 -45 60 -50
67 -32 36 -208 324 -293 477 -6 11 -22 40 -36 65 -110 200 -208 364 -259 434
-32 43 -33 46 -11 38 12 -5 25 -9 28 -9 3 0 12 -3 20 -6 68 -22 192 -51 263
-62 15 -2 42 -7 60 -10 76 -13 354 -19 437 -9 19 2 53 6 75 9 200 24 446 101
650 203 71 35 136 70 143 76 19 15 53 35 75 43 9 3 17 10 17 15 0 5 5 9 10 9
6 0 16 5 23 10 7 6 48 38 92 72 44 34 86 67 93 73 35 27 223 217 266 268 86
102 206 275 206 296 0 6 3 11 8 11 4 0 12 10 18 23 6 12 33 67 61 122 28 55
61 127 73 160 13 33 26 69 31 80 7 17 37 117 45 150 2 6 9 35 17 65 18 65 36
158 43 220 3 25 10 65 14 90 10 50 6 502 -5 565 -7 46 -53 272 -60 298 -5 16
-12 45 -20 77 -2 8 -4 16 -5 18 -2 1 -3 5 -4 10 -5 19 -18 60 -31 92 -7 19
-25 66 -39 103 -60 155 -168 358 -277 518 -35 52 -66 96 -69 99 -3 3 -35 41
-70 85 -95 119 -311 330 -430 422 -210 161 -453 302 -660 382 -47 18 -94 37
-105 42 -45 19 -240 73 -340 94 -187 39 -311 54 -471 60 -57 2 -108 6 -113 10
-6 3 -11 3 -11 -2z m-5515 -187 c44 -4 89 -10 100 -13 11 -4 36 -8 55 -9 19
-1 35 -3 35 -4 0 -1 9 -3 20 -4 11 -2 34 -6 50 -10 17 -3 41 -9 55 -12 88 -19
87 -18 140 -34 25 -7 50 -14 56 -16 28 -5 207 -69 284 -101 161 -66 468 -230
478 -255 2 -4 8 -8 14 -8 6 0 26 -11 44 -25 18 -14 37 -25 43 -25 6 0 11 -4
11 -9 0 -5 17 -20 38 -32 20 -13 42 -28 48 -34 6 -5 28 -23 49 -40 261 -204
511 -484 695 -778 63 -100 177 -319 213 -407 11 -25 25 -58 32 -75 33 -73 75
-211 69 -225 -7 -19 -41 -147 -47 -180 -3 -14 -12 -54 -20 -90 -8 -36 -18 -85
-21 -110 -3 -25 -8 -56 -11 -70 -10 -45 -21 -156 -31 -310 -13 -205 0 -499 32
-680 2 -14 7 -41 10 -60 6 -39 10 -62 18 -100 3 -14 11 -50 17 -80 11 -56 30
-129 48 -188 12 -41 14 -33 -21 -132 -71 -201 -161 -402 -248 -555 -22 -38
-43 -77 -47 -85 -14 -27 -67 -115 -73 -120 -3 -3 -23 -32 -44 -65 -37 -57
-139 -197 -161 -221 -5 -6 -21 -26 -35 -43 -32 -41 -109 -129 -137 -159 -13
-12 -23 -24 -23 -26 0 -3 -132 -134 -215 -213 -22 -21 -63 -56 -90 -78 -28
-22 -52 -42 -55 -46 -44 -48 -338 -252 -485 -336 -120 -68 -350 -183 -367
-183 -8 0 -18 -4 -24 -9 -11 -11 -227 -93 -308 -116 -31 -9 -54 -20 -52 -23 2
-4 -6 -7 -17 -8 -12 -1 -60 -13 -107 -29 -69 -22 -273 -82 -340 -100 -100 -27
-251 -66 -274 -70 -16 -3 -32 -8 -36 -10 -4 -2 -22 -7 -41 -10 -40 -8 -62 -13
-69 -15 -3 -1 -9 -3 -15 -4 -5 -1 -37 -8 -70 -15 -33 -7 -67 -15 -75 -16 -8
-2 -15 -4 -15 -5 0 -1 -9 -3 -20 -4 -11 -2 -69 -12 -130 -24 -115 -22 -142
-27 -240 -42 -106 -17 -159 -24 -187 -25 -16 0 -28 -2 -28 -5 0 -3 -10 -5 -22
-6 -29 -1 -144 -13 -183 -19 -16 -3 -68 -7 -115 -10 -47 -3 -104 -7 -127 -8
-33 -2 -40 0 -31 10 6 7 14 10 19 7 5 -3 9 -2 9 3 0 4 26 21 58 37 31 16 73
39 92 51 19 12 69 42 110 66 41 24 77 46 80 49 3 3 23 17 45 30 63 37 277 192
305 220 3 3 38 32 78 64 40 33 121 107 180 165 205 204 330 363 494 626 82
132 308 532 308 546 0 5 4 9 9 9 5 0 12 8 16 19 9 31 177 281 235 351 30 36
85 97 124 135 62 61 98 92 181 155 33 25 179 164 194 185 9 11 26 31 39 44 13
13 47 56 75 95 28 39 54 73 58 76 3 3 14 21 24 40 10 19 32 55 49 80 17 25 29
45 27 45 -2 0 12 34 32 75 30 65 81 195 82 210 0 3 3 10 6 15 6 9 11 29 23 90
3 11 9 40 15 65 19 85 26 165 26 300 0 155 -7 231 -32 335 -4 17 -7 32 -8 35
-4 27 -30 107 -36 114 -5 6 -9 18 -9 28 0 10 -24 69 -54 131 -95 198 -216 355
-381 493 -67 56 -215 159 -215 149 0 -4 -12 3 -26 14 -15 12 -30 21 -35 21 -5
0 -32 11 -61 25 -91 42 -222 81 -306 90 -26 3 -55 8 -64 11 -25 7 -216 7 -268
0 -91 -13 -173 -32 -225 -50 -203 -72 -313 -141 -450 -281 -74 -75 -161 -191
-185 -246 -5 -13 -14 -31 -19 -39 -20 -30 -60 -147 -77 -220 -17 -77 -23 -227
-12 -315 14 -110 54 -223 118 -330 41 -70 163 -197 235 -244 225 -149 506
-165 710 -39 120 75 231 229 255 354 12 67 4 172 -17 226 -87 223 -342 315
-486 175 -99 -95 -97 -229 3 -282 38 -20 121 -11 143 16 9 12 17 24 17 28 0 3
-20 15 -45 26 -45 20 -58 41 -30 51 8 4 15 11 15 16 0 18 33 37 63 38 35 0 98
-32 117 -60 8 -13 20 -28 26 -34 12 -13 26 -64 30 -106 2 -40 -25 -132 -51
-172 -34 -51 -87 -108 -102 -108 -6 0 -13 -3 -15 -7 -6 -14 -83 -50 -131 -62
-212 -51 -449 58 -587 271 -20 31 -42 69 -47 85 -22 57 -26 68 -29 83 -1 8 -9
42 -16 75 -44 197 31 461 182 640 134 160 339 286 520 320 14 3 36 7 50 10
108 22 304 20 385 -5 17 -5 41 -11 55 -12 14 -2 30 -6 35 -9 8 -5 74 -29 95
-34 3 -1 23 -10 45 -20 22 -10 43 -19 47 -19 4 -1 13 -7 19 -13 7 -7 17 -13
22 -13 12 0 165 -102 202 -135 113 -101 173 -167 242 -269 84 -125 170 -325
188 -436 3 -19 11 -70 19 -113 13 -77 14 -288 2 -372 -32 -210 -127 -456 -241
-623 -91 -132 -105 -150 -187 -234 -87 -89 -272 -242 -307 -253 -12 -3 -21
-11 -21 -16 0 -5 -6 -9 -14 -9 -8 0 -16 -3 -18 -7 -5 -12 -113 -67 -208 -106
-82 -34 -228 -78 -300 -91 -19 -3 -46 -8 -60 -11 -99 -21 -437 -28 -525 -11
-22 4 -52 8 -67 9 -16 1 -28 6 -28 10 0 5 -4 6 -8 3 -10 -6 -229 49 -254 64
-10 5 -23 10 -30 10 -7 1 -31 9 -53 20 -22 11 -48 19 -57 20 -10 0 -18 5 -18
10 0 6 -5 10 -11 10 -15 0 -143 63 -147 73 -2 4 -8 7 -13 7 -5 0 -40 19 -77
42 -326 203 -616 524 -773 858 -68 143 -137 337 -153 430 -3 14 -5 25 -6 25
-2 0 -6 21 -14 69 -4 21 -9 48 -11 60 -5 21 -12 71 -20 156 -6 57 -7 329 -1
395 15 166 83 465 132 580 7 17 23 57 36 90 12 33 27 63 33 67 5 4 7 8 2 8 -9
0 76 163 146 280 90 149 227 320 372 465 240 240 494 413 790 539 50 21 99 42
110 47 26 11 137 48 161 54 11 3 62 16 114 30 83 22 168 39 300 59 19 3 71 9
115 12 44 3 81 7 83 9 5 5 341 -3 417 -9z m5710 4 c0 0 23 -3 50 -5 129 -9
306 -43 510 -98 44 -12 212 -71 220 -77 6 -4 21 -11 35 -15 86 -25 374 -187
500 -280 165 -122 337 -279 445 -408 22 -26 55 -65 72 -85 18 -20 33 -42 33
-48 0 -7 7 -14 15 -18 8 -3 15 -12 15 -20 0 -8 4 -16 8 -18 32 -12 204 -316
274 -483 29 -68 93 -255 103 -299 2 -11 9 -39 14 -61 5 -22 12 -53 15 -70 9
-43 15 -76 21 -105 20 -98 28 -487 12 -598 -14 -97 -18 -127 -23 -152 -3 -14
-7 -35 -9 -47 -2 -11 -6 -30 -10 -42 -3 -11 -8 -32 -11 -45 -12 -67 -93 -285
-146 -393 -54 -113 -206 -355 -246 -394 -9 -9 -32 -35 -51 -58 -50 -62 -177
-186 -258 -253 -262 -214 -613 -376 -918 -424 -27 -4 -61 -9 -75 -11 -14 -2
-101 -6 -195 -8 -234 -5 -409 23 -622 100 -92 34 -272 123 -304 151 -8 8 -19
14 -23 14 -6 0 -65 43 -102 75 -7 6 -26 21 -44 35 -84 67 -147 126 -200 190
-25 30 -50 59 -57 63 -7 4 -13 14 -13 22 0 7 -4 15 -8 17 -8 2 -49 62 -100
143 -35 56 -114 231 -141 313 -51 154 -69 281 -66 461 1 86 6 167 9 181 6 25
12 53 21 101 19 101 100 294 170 403 43 67 125 167 181 221 65 63 115 105 124
105 5 0 10 4 12 9 9 25 199 127 306 166 138 49 173 55 332 60 112 3 151 0 254
-19 181 -34 389 -161 522 -319 75 -89 160 -255 170 -332 1 -11 3 -20 4 -20 2
0 6 -18 15 -70 13 -77 4 -230 -16 -267 -6 -10 -8 -18 -5 -18 7 0 -27 -89 -53
-140 -70 -136 -224 -263 -364 -301 -70 -19 -80 -20 -148 -20 -162 2 -302 90
-370 236 -28 60 -33 153 -10 205 21 47 84 107 121 115 45 10 86 -3 98 -30 7
-14 15 -25 20 -25 5 0 9 -6 9 -14 0 -8 -20 -22 -44 -31 -49 -19 -47 -16 -32
-49 18 -38 106 -46 158 -14 59 35 79 124 48 201 -24 57 -97 122 -148 131 -13
3 -26 5 -29 6 -3 1 -30 2 -60 1 -70 -2 -168 -49 -222 -105 -122 -130 -142
-329 -51 -494 151 -273 465 -377 771 -256 133 53 286 176 360 290 17 27 36 55
42 62 6 6 8 12 5 12 -3 0 1 12 9 28 73 134 102 305 82 497 -27 265 -218 562
-471 730 -58 39 -208 115 -225 115 -5 0 -21 5 -37 12 -34 13 -31 13 -118 31
-135 30 -254 36 -383 22 -71 -7 -75 -8 -182 -34 -25 -7 -53 -13 -62 -16 -9 -2
-25 -8 -35 -13 -10 -6 -22 -11 -28 -12 -9 -2 -29 -10 -105 -43 -14 -5 -27 -11
-30 -11 -3 -1 -12 -6 -20 -11 -25 -17 -46 -29 -81 -49 -108 -60 -299 -230
-374 -331 -17 -22 -33 -42 -36 -45 -10 -9 -77 -117 -100 -162 -12 -24 -26 -46
-31 -49 -5 -3 -10 -16 -11 -27 -1 -12 -5 -22 -9 -22 -4 0 -8 -8 -8 -18 0 -10
-4 -22 -9 -28 -7 -8 -48 -124 -55 -157 -2 -7 -6 -19 -9 -27 -5 -13 -16 -69
-18 -92 0 -4 -4 -22 -9 -39 -11 -37 -23 -194 -22 -289 1 -83 13 -189 31 -272
6 -24 12 -55 14 -69 10 -54 79 -243 120 -327 55 -114 145 -262 177 -292 3 -3
13 -16 22 -30 46 -72 199 -226 330 -332 153 -123 238 -214 349 -369 59 -84
209 -323 209 -334 0 -2 13 -26 28 -52 16 -26 48 -84 72 -128 24 -44 85 -150
137 -235 120 -199 116 -192 131 -208 6 -7 12 -17 12 -21 0 -4 8 -16 18 -27 9
-11 28 -35 41 -54 73 -104 192 -241 317 -365 154 -153 188 -183 344 -301 212
-159 318 -227 598 -381 34 -19 62 -35 62 -37 0 -1 -17 -1 -37 1 -21 1 -78 5
-128 8 -49 3 -103 7 -120 10 -16 2 -57 7 -90 10 -78 8 -120 13 -120 15 0 1
-13 3 -30 5 -101 11 -131 15 -390 60 -16 3 -52 10 -80 16 -27 6 -61 13 -75 15
-14 2 -47 9 -75 15 -27 6 -59 12 -70 15 -48 10 -310 75 -420 104 -66 18 -133
36 -150 40 -50 13 -239 70 -255 77 -19 8 -20 8 -55 18 -16 4 -34 10 -40 14 -5
3 -12 6 -15 6 -16 3 -179 59 -255 88 -176 68 -379 167 -545 266 -147 88 -143
85 -158 99 -7 6 -23 17 -35 23 -11 7 -26 16 -31 21 -6 4 -42 32 -81 60 -38 29
-76 58 -83 65 -7 7 -16 13 -20 13 -4 0 -28 19 -54 43 -26 23 -66 59 -90 79
-152 130 -422 425 -518 568 -13 19 -27 37 -30 40 -4 3 -25 32 -47 65 -154 229
-322 553 -386 744 -12 36 -24 68 -27 71 -3 3 -13 30 -23 60 -15 51 -15 93 0
130 3 8 7 20 8 26 2 7 11 45 20 85 9 41 18 82 20 92 2 10 6 26 9 35 3 9 8 37
11 62 5 40 11 81 30 200 12 78 20 235 20 410 -1 226 -11 361 -39 520 -3 14 -7
41 -10 60 -9 63 -36 183 -62 278 -25 92 -25 95 -8 145 19 58 68 186 89 232 51
113 80 171 88 176 5 3 8 9 7 13 -2 10 81 160 92 164 4 2 6 7 3 12 -3 4 2 13
10 20 8 7 15 18 15 25 0 8 3 15 8 17 4 2 23 28 42 58 19 30 41 62 48 70 7 8
37 47 67 87 54 71 71 93 150 182 62 71 193 200 265 261 35 30 71 61 79 68 8 8
39 32 70 55 31 23 58 45 61 48 7 8 182 125 222 147 145 83 184 104 263 143 50
23 97 44 107 46 9 1 31 12 50 23 19 11 43 21 53 23 11 1 25 5 30 9 13 8 229
77 258 82 12 3 22 5 22 6 0 1 7 3 16 5 10 1 50 11 90 20 41 10 85 19 99 20 14
2 25 4 25 5 0 1 16 3 35 6 19 2 53 6 75 9 22 3 69 8 105 11 36 4 66 7 67 8 3
3 368 -1 368 -4z m-3061 -2610 c24 -163 30 -252 30 -445 0 -161 -6 -283 -19
-385 -10 -71 -34 -212 -38 -216 -3 -3 -19 101 -33 206 -20 156 -26 525 -10
680 5 47 9 94 10 105 3 21 19 125 22 138 1 4 2 22 3 40 3 52 16 7 35 -123z"/>
</g>
</svg>
