<?xml version="1.0" standalone="no"?>
<!DOCTYPE svg PUBLIC "-//W3C//DTD SVG 20010904//EN"
 "http://www.w3.org/TR/2001/REC-SVG-20010904/DTD/svg10.dtd">
<svg version="1.0" xmlns="http://www.w3.org/2000/svg"
 width="1120.000000pt" height="1120.000000pt" viewBox="0 0 1120.000000 1120.000000"
 preserveAspectRatio="xMidYMid meet">
<metadata>
Created by potrace 1.11, written by Peter Selinger 2001-2013
</metadata>
<g transform="translate(0.000000,1120.000000) scale(0.100000,-0.100000)"
fill="#000000" stroke="none">
<path d="M2588 9005 c-2 -2 -43 -6 -93 -9 -248 -17 -461 -62 -710 -149 -49
-17 -101 -37 -115 -44 -14 -7 -28 -13 -32 -13 -14 0 -202 -93 -285 -141 -364
-210 -700 -534 -922 -891 -61 -97 -181 -322 -181 -339 0 -5 -11 -33 -25 -64
-32 -69 -79 -212 -105 -319 -27 -109 -30 -121 -41 -196 -5 -36 -12 -83 -15
-105 -14 -94 -19 -330 -10 -440 5 -65 17 -165 22 -190 3 -11 9 -45 15 -75 40
-210 127 -452 227 -635 43 -77 130 -215 142 -225 4 -3 17 -21 31 -41 40 -59
109 -137 209 -237 329 -328 770 -546 1215 -599 75 -9 327 -9 420 0 193 18 444
94 616 186 42 23 79 41 82 41 3 0 -10 -16 -29 -36 -91 -97 -283 -362 -299
-415 -4 -10 -11 -19 -16 -19 -5 0 -9 -4 -9 -9 0 -5 -20 -43 -44 -84 -25 -41
-64 -110 -87 -154 -24 -43 -53 -96 -66 -118 -12 -22 -26 -47 -30 -55 -3 -8 -9
-17 -12 -20 -3 -3 -15 -23 -26 -45 -40 -78 -282 -436 -315 -465 -3 -3 -28 -32
-55 -65 -61 -73 -239 -252 -319 -320 -32 -27 -64 -55 -70 -61 -17 -16 -164
-126 -221 -165 -27 -19 -52 -37 -55 -40 -21 -27 -382 -232 -598 -340 -168 -84
-229 -119 -220 -126 8 -6 97 -9 223 -8 216 2 316 8 510 29 33 4 78 9 100 11
49 5 122 14 155 20 14 2 45 7 70 10 25 3 68 10 95 15 28 5 64 12 80 15 17 3
41 7 55 10 14 3 45 8 70 11 25 3 48 8 51 10 3 2 21 6 40 9 64 11 224 46 344
76 66 17 127 32 135 34 119 26 398 107 595 173 94 31 175 57 180 58 66 16 366
146 499 217 61 33 124 66 139 74 129 68 369 237 547 386 256 215 580 584 734
837 15 25 41 68 58 95 85 138 208 388 258 520 32 87 36 96 53 136 9 21 19 54
23 75 l7 37 13 -26 c8 -14 16 -34 17 -44 2 -10 7 -27 11 -38 5 -11 12 -33 18
-50 5 -16 14 -39 18 -50 5 -11 26 -60 46 -110 100 -240 270 -536 444 -770 156
-210 394 -462 580 -615 30 -25 60 -49 66 -55 6 -5 23 -19 39 -30 15 -11 42
-32 59 -46 17 -14 54 -41 81 -59 28 -19 52 -36 55 -39 3 -3 14 -11 25 -18 11
-7 79 -48 150 -91 232 -142 468 -253 705 -332 69 -23 134 -46 145 -51 26 -11
91 -32 198 -63 48 -14 126 -38 175 -52 219 -64 723 -182 900 -210 19 -3 44 -8
56 -10 64 -12 136 -24 176 -29 25 -3 59 -8 75 -11 60 -10 81 -13 145 -19 36
-4 76 -8 90 -10 14 -3 59 -7 100 -10 41 -3 104 -8 140 -11 75 -8 467 -12 493
-6 32 8 18 22 -55 56 -429 198 -780 413 -1063 650 -148 124 -416 411 -505 542
-127 187 -211 324 -364 596 -198 354 -308 519 -426 642 -27 28 -48 52 -46 53
2 2 32 -12 67 -31 92 -49 221 -101 324 -131 95 -27 96 -28 200 -45 39 -6 86
-15 105 -19 39 -8 370 -6 440 3 25 3 68 10 95 16 28 6 59 12 70 14 148 29 284
77 465 164 190 91 409 245 565 399 366 360 585 822 644 1358 9 77 6 416 -3
480 -21 141 -27 173 -33 199 -2 11 -6 30 -8 41 -4 26 -45 177 -50 185 -2 4 -6
17 -9 31 -6 34 -71 201 -112 287 -19 41 -34 75 -34 77 0 13 -156 272 -192 320
-5 6 -33 44 -64 85 -380 504 -942 865 -1545 990 -125 25 -147 29 -194 36 -22
3 -53 7 -70 9 -165 24 -526 24 -666 0 -13 -2 -44 -6 -70 -9 -25 -3 -52 -7 -60
-10 -7 -3 -30 -7 -49 -10 -161 -25 -436 -107 -577 -171 -17 -8 -34 -15 -37
-15 -33 0 -379 -189 -510 -278 -74 -50 -236 -172 -262 -197 -6 -5 -35 -30 -64
-55 -235 -198 -508 -536 -675 -835 -74 -132 -150 -298 -200 -435 -21 -58 -42
-109 -46 -114 -4 -5 -13 11 -19 35 -31 114 -156 391 -251 555 -47 82 -200 313
-223 337 -6 7 -29 34 -51 62 -334 417 -780 750 -1273 949 -102 41 -284 102
-335 112 -11 2 -34 8 -51 14 -39 12 -215 47 -281 55 -28 3 -61 8 -75 10 -69
12 -432 28 -442 20z m407 -39 c22 -4 47 -7 55 -7 41 -2 207 -33 300 -56 58
-14 110 -26 115 -27 6 -1 15 -4 20 -7 6 -3 30 -11 55 -19 57 -16 176 -58 215
-75 17 -7 55 -23 85 -35 117 -46 333 -164 479 -263 70 -47 229 -163 241 -176
3 -3 32 -28 65 -56 128 -106 333 -323 445 -469 72 -94 220 -317 220 -332 0 -7
4 -14 9 -16 5 -1 38 -61 74 -133 92 -183 112 -232 171 -401 l32 -92 -23 -83
c-13 -46 -25 -93 -27 -104 -3 -11 -11 -49 -20 -85 -8 -36 -17 -83 -20 -105 -4
-22 -10 -62 -15 -90 -24 -126 -35 -282 -35 -490 0 -167 6 -289 19 -390 17
-124 33 -231 40 -255 2 -8 7 -31 10 -50 7 -41 65 -263 70 -269 2 -1 -1 -15 -7
-30 -5 -14 -11 -33 -13 -41 -3 -17 -81 -234 -95 -265 -341 -778 -867 -1369
-1590 -1789 -38 -22 -307 -156 -375 -186 -58 -26 -242 -94 -285 -105 -22 -6
-82 -27 -105 -37 -77 -33 -675 -201 -800 -224 -11 -2 -47 -11 -80 -19 -33 -9
-71 -17 -85 -20 -14 -2 -59 -11 -100 -20 -41 -9 -91 -18 -110 -21 -19 -3 -53
-9 -75 -14 -22 -5 -56 -11 -75 -15 -19 -3 -47 -8 -62 -11 -15 -3 -42 -7 -60
-9 -18 -3 -49 -7 -68 -10 -19 -3 -48 -7 -65 -10 -16 -2 -46 -6 -65 -9 -19 -3
-66 -8 -103 -11 -37 -4 -76 -8 -85 -10 -9 -1 -62 -6 -117 -10 -55 -4 -118 -9
-140 -11 -59 -5 -376 -6 -380 -2 -3 2 84 48 192 102 108 54 225 116 260 137
35 22 65 39 68 39 7 0 224 139 290 186 273 195 506 409 681 628 114 142 339
489 385 593 7 18 17 33 21 33 5 0 8 4 8 8 0 18 191 350 263 457 128 191 271
350 417 463 343 267 560 621 645 1052 27 132 23 391 -6 519 -6 25 -13 57 -15
71 -3 14 -12 45 -20 70 -9 25 -17 52 -19 60 -6 23 -57 137 -92 205 -52 100
-132 205 -232 306 -203 202 -409 313 -701 375 -50 10 -266 12 -333 3 -303 -43
-570 -209 -731 -453 -171 -258 -204 -540 -97 -806 76 -187 252 -351 441 -411
97 -32 244 -34 335 -6 161 50 283 167 331 317 12 38 14 50 15 115 5 195 -193
359 -344 286 -49 -24 -70 -49 -85 -102 -15 -56 21 -102 71 -91 26 5 20 22 -8
22 -33 0 -51 37 -38 76 12 36 69 81 111 88 90 13 214 -70 251 -170 30 -78 23
-181 -17 -267 -54 -116 -180 -223 -297 -253 -85 -21 -190 -25 -255 -9 -14 3
-36 8 -49 11 -37 8 -164 71 -188 93 -12 12 -26 21 -30 21 -14 0 -118 112 -157
168 -82 118 -127 282 -121 445 3 109 5 119 31 206 10 31 18 58 18 61 3 21 49
108 94 179 53 82 167 206 249 269 49 38 192 113 248 131 107 33 146 43 225 55
125 18 282 12 385 -16 22 -5 51 -12 65 -15 14 -2 66 -20 115 -40 247 -98 456
-267 615 -497 92 -133 183 -353 206 -500 3 -21 8 -48 11 -60 12 -48 12 -344
-1 -418 -7 -43 -10 -78 -8 -78 2 0 -1 -6 -7 -13 -6 -8 -8 -16 -6 -19 3 -3 1
-17 -5 -32 -5 -15 -12 -39 -15 -53 -9 -51 -90 -252 -127 -316 -15 -26 -28 -50
-28 -53 0 -15 -151 -224 -204 -283 -148 -162 -331 -302 -521 -398 -85 -44
-245 -107 -295 -118 -8 -2 -42 -10 -75 -18 -245 -61 -552 -68 -785 -16 -25 5
-56 12 -70 15 -14 3 -34 7 -45 9 -98 22 -301 101 -425 167 -208 110 -349 215
-520 387 -145 145 -172 178 -272 326 -155 231 -281 539 -323 790 -3 17 -8 41
-10 55 -3 14 -8 36 -10 50 -19 98 -26 415 -12 540 15 134 19 165 42 270 12 57
19 87 22 98 1 6 4 18 6 25 2 6 12 39 22 72 10 33 19 65 21 71 5 27 121 295
152 354 42 78 133 226 182 295 175 248 367 440 645 643 125 91 361 218 525
282 108 42 119 46 155 59 40 14 289 77 340 86 115 19 145 23 204 30 30 3 56 7
58 9 6 6 495 -2 538 -8z m5775 1 c14 -3 48 -8 77 -11 69 -8 296 -54 358 -73
28 -8 79 -24 115 -35 278 -87 586 -255 830 -452 93 -75 311 -289 365 -358 22
-28 45 -56 51 -62 24 -25 174 -246 211 -311 42 -74 143 -278 143 -290 0 -4 7
-21 15 -38 28 -63 99 -288 112 -357 2 -14 9 -45 14 -70 6 -25 13 -61 15 -80 3
-19 7 -46 9 -60 24 -130 24 -432 1 -605 -13 -95 -18 -121 -23 -135 -3 -8 -7
-24 -8 -35 -4 -32 -35 -146 -51 -190 -9 -22 -15 -40 -13 -40 12 0 -68 -192
-133 -320 -121 -239 -329 -496 -538 -665 -30 -25 -57 -47 -60 -51 -14 -16
-245 -163 -310 -196 -68 -36 -229 -105 -305 -131 -65 -23 -224 -61 -320 -77
-144 -24 -418 -24 -550 0 -446 80 -748 248 -1068 593 -60 65 -184 256 -233
361 -42 89 -107 265 -118 321 -2 14 -9 49 -15 77 -28 140 -32 364 -9 483 64
330 175 549 388 760 143 143 302 244 483 308 48 17 87 29 87 27 0 -3 11 0 25
5 95 36 347 44 473 15 12 -3 30 -7 40 -9 343 -78 626 -336 731 -668 54 -167
47 -355 -19 -530 -45 -120 -159 -259 -272 -331 -258 -165 -566 -126 -729 93
-103 138 -104 330 -3 434 73 75 163 100 235 63 77 -39 101 -131 38 -144 -34
-7 -38 -18 -8 -26 28 -7 69 33 69 68 0 33 -21 74 -52 101 -103 92 -284 26
-353 -127 -94 -209 40 -462 297 -561 80 -30 233 -34 329 -7 204 56 399 231
468 419 70 191 77 327 26 548 -14 60 -77 195 -120 255 -37 52 -139 172 -165
192 -13 11 -33 28 -43 38 -23 23 -138 98 -197 127 -77 39 -199 77 -308 97 -50
9 -253 10 -327 1 -100 -12 -264 -64 -380 -122 -120 -60 -114 -56 -230 -149
-255 -202 -424 -475 -490 -792 -45 -213 -40 -452 11 -660 87 -349 305 -683
598 -917 117 -93 238 -213 318 -313 57 -72 198 -278 198 -290 0 -3 13 -25 28
-48 16 -23 48 -78 72 -122 367 -685 631 -1016 1076 -1353 97 -73 348 -239 375
-247 11 -4 19 -11 19 -16 0 -5 4 -9 9 -9 5 0 42 -19 83 -42 40 -23 156 -83
258 -134 l185 -93 -55 -2 c-70 -2 -271 2 -330 6 -25 1 -92 6 -149 10 -58 4
-112 8 -120 10 -9 2 -47 6 -86 10 -38 4 -79 9 -90 10 -11 2 -40 6 -65 9 -25 3
-56 8 -70 11 -14 2 -45 7 -70 10 -25 3 -58 8 -75 12 -16 4 -37 7 -45 8 -20 3
-120 22 -260 50 -41 8 -86 16 -100 19 -67 11 -470 115 -665 172 -199 57 -501
158 -645 214 -179 71 -523 256 -693 374 -57 40 -241 180 -263 201 -6 5 -33 28
-60 50 -75 61 -302 287 -369 366 -33 39 -67 80 -76 90 -8 10 -24 30 -35 44
-10 15 -23 32 -29 39 -5 6 -23 29 -39 51 -17 22 -33 42 -36 45 -8 7 -127 189
-177 270 -113 185 -251 484 -316 686 -35 108 -35 110 -20 164 38 139 52 194
51 199 -1 3 4 31 10 61 7 30 14 66 17 80 7 39 33 223 33 240 1 8 4 56 8 105 8
99 8 388 0 475 -14 149 -17 179 -26 230 -5 30 -12 73 -16 95 -3 22 -17 87 -31
145 -13 58 -26 112 -28 120 -2 8 -4 15 -5 15 -1 0 -3 7 -5 15 -2 8 -6 25 -9
38 -3 12 -8 30 -10 41 -7 32 109 341 178 471 74 140 107 197 159 279 34 53 65
101 70 106 4 6 35 48 69 95 34 46 66 90 72 96 6 6 29 33 51 60 46 58 291 304
351 354 129 108 141 117 299 223 176 118 279 176 455 255 152 68 356 139 480
168 175 40 307 63 400 70 41 3 77 8 79 9 5 6 474 -2 501 -8z m-3147 -2342 c34
-135 63 -285 72 -375 2 -14 7 -61 11 -105 11 -102 11 -527 0 -625 -5 -41 -10
-86 -11 -100 -3 -29 -11 -71 -50 -280 -2 -14 -14 -65 -26 -115 -21 -85 -35
-122 -36 -93 0 7 -8 38 -17 68 -9 30 -16 55 -16 55 1 0 -1 7 -4 15 -4 13 -17
86 -18 100 0 3 -4 14 -8 25 -4 11 -11 47 -15 80 -3 32 -8 62 -11 66 -2 4 -7
35 -10 70 -3 35 -8 78 -10 94 -22 198 -22 489 1 675 2 19 6 58 9 85 3 28 10
73 15 100 6 28 12 65 15 84 11 77 71 300 77 288 4 -7 19 -57 32 -112z"/>
</g>
</svg>
